<svg xmlns="http://www.w3.org/2000/svg" viewBox="0 0 32 32" fill="none">
  <!-- 中文气泡 -->
  <path d="M3 6 H17 a2 2 0 0 1 2 2 V16 a2 2 0 0 1 -2 2 H10 L6 22 V18 H5 a2 2 0 0 1 -2 -2 V8 a2 2 0 0 1 2 -2 z" fill="#3d6b48"/>
  <text x="6" y="15" fill="#fff" font-family="serif" font-size="9" font-weight="700">文</text>
  <!-- A 气泡 -->
  <path d="M14 12 H27 a2 2 0 0 1 2 2 V22 a2 2 0 0 1 -2 2 H22 L19 28 V24 a2 2 0 0 1 -2 -2 V14 a2 2 0 0 1 2 -2 z" fill="#b59b66"/>
  <text x="18" y="22" fill="#fff" font-family="serif" font-size="10" font-weight="700">A</text>
</svg>
