<svg xmlns="http://www.w3.org/2000/svg" viewBox="0 0 200 400" fill="none" preserveAspectRatio="xMidYMid meet">
  <!-- 主茎 -->
  <path d="M100 380 C90 300 110 240 95 170 C85 110 110 60 100 20" stroke="#9aa294" stroke-width="2" stroke-linecap="round"/>

  <!-- 叶子（一组）-->
  <g fill="#a8b09d" opacity="0.85">
    <ellipse cx="65" cy="140" rx="32" ry="10" transform="rotate(-25 65 140)"/>
    <ellipse cx="135" cy="115" rx="32" ry="10" transform="rotate(25 135 115)"/>
    <ellipse cx="60" cy="200" rx="36" ry="11" transform="rotate(-20 60 200)"/>
    <ellipse cx="140" cy="180" rx="36" ry="11" transform="rotate(20 140 180)"/>
    <ellipse cx="55" cy="260" rx="40" ry="12" transform="rotate(-18 55 260)"/>
    <ellipse cx="145" cy="245" rx="40" ry="12" transform="rotate(18 145 245)"/>
    <ellipse cx="60" cy="320" rx="34" ry="11" transform="rotate(-20 60 320)"/>
    <ellipse cx="140" cy="300" rx="34" ry="11" transform="rotate(20 140 300)"/>
  </g>

  <!-- 橄榄果 -->
  <g fill="#7a8475">
    <ellipse cx="80" cy="260" rx="6" ry="10"/>
    <ellipse cx="118" cy="220" rx="6" ry="10"/>
  </g>

  <!-- 卷草装饰（左下）-->
  <path d="M10 380 Q 30 360 25 340 Q 20 320 40 320 Q 60 320 55 300" stroke="#b8b29c" stroke-width="1.5" fill="none"/>
</svg>
