<svg xmlns="http://www.w3.org/2000/svg" viewBox="0 0 24 24" fill="none">
  <path fill="#245d49" d="M12 5c1.6 0 3 .6 4.1 1.6l3-3C17.2 1.7 14.8.8 12 .8 7.4.8 3.5 3.4 1.6 7.2l3.5 2.7C6 7.1 8.7 5 12 5z"/>
  <path fill="#245d49" d="M12 19c-3.3 0-6-2.1-6.9-4.9l-3.5 2.7C3.5 20.6 7.4 23.2 12 23.2c2.7 0 5.1-.9 7-2.5l-3.4-2.7c-1 .7-2.3 1-3.6 1z"/>
  <path fill="#245d49" d="M22.6 12.3c0-.8-.1-1.5-.2-2.3H12v4.3h5.9c-.3 1.4-1 2.6-2.2 3.4l3.4 2.7c2-1.9 3.5-4.7 3.5-8.1z"/>
  <path fill="#245d49" d="M5.1 14.1c-.2-.7-.4-1.4-.4-2.1s.1-1.4.4-2.1L1.6 7.2C.8 8.7.4 10.3.4 12s.4 3.3 1.2 4.8l3.5-2.7z"/>
</svg>
